<?xml version="1.0" encoding="UTF-8"?>
<svg id="Calque_2" data-name="Calque 2" xmlns="http://www.w3.org/2000/svg" viewBox="0 0 152.47 127.76">
  <defs>
    <style>
      .cls-1 {
        fill: #f4faf8;
        stroke-width: 0px;
      }
    </style>
  </defs>
  <g id="Calque_2-2" data-name="Calque 2">
    <g>
      <path class="cls-1" d="m42.61,42.61h21.94c4.7,0,8.5-3.81,8.5-8.5V0H8.5C3.8,0,0,3.81,0,8.5v52.38h34.11c4.7,0,8.5-3.81,8.5-8.5v-9.77Zm-30.44,6.09V12.17h48.7v18.26h-18.26v-6.09h-12.18v24.35H12.17Z"/>
      <path class="cls-1" d="m42.61,75.38c0-4.7-3.81-8.5-8.5-8.5H0v52.38c0,4.7,3.81,8.5,8.5,8.5h64.55v-34.11c0-4.7-3.81-8.5-8.5-8.5h-21.94s0-9.77,0-9.77Zm-30.44,3.68h18.26v24.35h12.18v-6.09h18.26v18.26H12.17v-36.53h0Z"/>
      <path class="cls-1" d="m109.86,42.61h-21.94c-4.7,0-8.5-3.81-8.5-8.5V0h64.55c4.7,0,8.5,3.81,8.5,8.5v52.38h-34.11c-4.7,0-8.5-3.81-8.5-8.5v-9.77Zm30.44,6.09V12.17h-48.7v18.26h18.26v-6.09h12.18v24.35h18.26Z"/>
      <path class="cls-1" d="m109.86,75.38c0-4.7,3.81-8.5,8.5-8.5h34.11v52.38c0,4.7-3.81,8.5-8.5,8.5h-64.55v-34.11c0-4.7,3.81-8.5,8.5-8.5h21.94v-9.77Zm30.44,3.68h-18.26v24.35h-12.18v-6.09h-18.26v18.26h48.7v-36.53h0Z"/>
    </g>
  </g>
</svg>